# xmcd
#
# Track frame offsets: 
#        150
#        12234
#        30032
#        47831
#        70943
#        94934
#        120322
#        140845
#        163138
#        183381
#        202426
#        217756
#
# Disc length: 3166 seconds
#
# Revision: 0
# Processed by: cddbd v1.5.2PL0 Copyright (c) Steve Scherf et al.
# Submitted via: ExactAudioCopyFreeDBPlugin 1.0
#
DISCID=a80c5c0c
DTITLE=Ron Orlando and Mystery Train - Jasper, Texas
DYEAR=2002
DGENRE=Country
TTITLE0=Memphis Bound
TTITLE1=The Walk
TTITLE2=Tell Me
TTITLE3=Whiskey and Women (Doll's Blues)
TTITLE4=Nobody but You
TTITLE5=Jolene, Jolene
TTITLE6=She's Got Soul
TTITLE7=Don't Say You Don't Know
TTITLE8=Since You've Been Gone
TTITLE9=Cryin' Shame
TTITLE10=Redemption
TTITLE11=Jasper, Texas
EXTD=CD Baby id:mysterytrainBarcode: 783707606125
EXTT0=
EXTT1=
EXTT2=
EXTT3=
EXTT4=
EXTT5=
EXTT6=
EXTT7=
EXTT8=
EXTT9=
EXTT10=
EXTT11=
PLAYORDER=
